<svg xmlns="http://www.w3.org/2000/svg" xmlns:xlink="http://www.w3.org/1999/xlink"><symbol id="arrow-left" viewBox="0 0 19 19">
<path d="M18.05 9.00013H1.8677L7.79 1.21513C7.82568 1.16818 7.85398 1.11245 7.87329 1.05111C7.8926 0.98977 7.90254 0.924026 7.90254 0.857632C7.90254 0.791238 7.8926 0.725494 7.87329 0.664154C7.85398 0.602815 7.82568 0.54708 7.79 0.500132C7.75432 0.453185 7.71196 0.415944 7.66534 0.390536C7.61873 0.365128 7.56876 0.352051 7.5183 0.352051C7.46784 0.352051 7.41788 0.365128 7.37126 0.390536C7.32464 0.415944 7.28228 0.453185 7.2466 0.500132L0.6821 9.14513C0.664125 9.16856 0.648193 9.19455 0.6346 9.22263C0.628209 9.23456 0.622493 9.2471 0.6175 9.26013L0.5985 9.31013L0.5871 9.36013C0.586008 9.37426 0.586008 9.3885 0.5871 9.40263C0.577374 9.467 0.577374 9.53326 0.5871 9.59763C0.586008 9.61176 0.586008 9.626 0.5871 9.64013L0.5985 9.69013L0.6175 9.74013C0.622493 9.75317 0.628209 9.7657 0.6346 9.77763C0.648193 9.80571 0.664125 9.8317 0.6821 9.85513L7.2466 18.5001C7.28199 18.5478 7.32425 18.5856 7.37091 18.6114C7.41757 18.6373 7.46768 18.6506 7.5183 18.6506C7.56892 18.6506 7.61903 18.6373 7.66569 18.6114C7.71235 18.5856 7.75461 18.5478 7.79 18.5001C7.82533 18.4537 7.85336 18.3986 7.87248 18.3379C7.89161 18.2772 7.90145 18.2121 7.90145 18.1464C7.90145 18.0807 7.89161 18.0156 7.87248 17.9549C7.85336 17.8942 7.82533 17.8391 7.79 17.7926L1.8677 10.0001H18.05C18.1508 10.0001 18.2474 9.94745 18.3187 9.85368C18.39 9.75992 18.43 9.63274 18.43 9.50013C18.43 9.36752 18.39 9.24035 18.3187 9.14658C18.2474 9.05281 18.1508 9.00013 18.05 9.00013Z" fill="black"/>
</symbol><symbol id="arrow-right" viewBox="0 0 19 19">
<path d="M0.949972 9.99987L17.1323 9.99987L11.21 17.7849C11.1743 17.8318 11.146 17.8876 11.1267 17.9489C11.1074 18.0102 11.0974 18.076 11.0974 18.1424C11.0974 18.2088 11.1074 18.2745 11.1267 18.3358C11.146 18.3972 11.1743 18.4529 11.21 18.4999C11.2457 18.5468 11.288 18.5841 11.3346 18.6095C11.3812 18.6349 11.4312 18.6479 11.4817 18.6479C11.5321 18.6479 11.5821 18.6349 11.6287 18.6095C11.6753 18.5841 11.7177 18.5468 11.7534 18.4999L18.3179 9.85487C18.3358 9.83144 18.3518 9.80545 18.3654 9.77737C18.3718 9.76544 18.3775 9.7529 18.3825 9.73987L18.4015 9.68987L18.4129 9.63987C18.414 9.62574 18.414 9.6115 18.4129 9.59737C18.4226 9.533 18.4226 9.46674 18.4129 9.40237C18.414 9.38824 18.414 9.374 18.4129 9.35987L18.4015 9.30987L18.3825 9.25987C18.3775 9.24683 18.3718 9.2343 18.3654 9.22237C18.3518 9.19429 18.3358 9.1683 18.3179 9.14487L11.7534 0.499868C11.718 0.452246 11.6757 0.414406 11.6291 0.388573C11.5824 0.36274 11.5323 0.34943 11.4817 0.34943C11.4311 0.34943 11.3809 0.36274 11.3343 0.388573C11.2876 0.414406 11.2454 0.452246 11.21 0.499868C11.1746 0.546305 11.1466 0.601448 11.1275 0.662148C11.1084 0.722847 11.0985 0.78791 11.0985 0.853619C11.0985 0.919327 11.1084 0.984388 11.1275 1.04509C11.1466 1.10579 11.1746 1.16093 11.21 1.20737L17.1323 8.99987L0.949972 8.99987C0.84919 8.99987 0.752535 9.05255 0.681271 9.14631C0.610006 9.24008 0.569971 9.36726 0.569971 9.49987C0.569971 9.63248 0.610006 9.75965 0.681271 9.85342C0.752535 9.94719 0.84919 9.99987 0.949972 9.99987Z" fill="black"/>
</symbol><symbol id="avatar" viewBox="0 0 18 18">
<path d="M17.46 9C17.4601 7.60325 17.1142 6.22823 16.4534 4.99767C15.7927 3.76711 14.8375 2.71929 13.6732 1.94776C12.5088 1.17623 11.1716 0.704973 9.78082 0.576067C8.39003 0.447161 6.98896 0.664612 5.70267 1.20901C4.41638 1.75341 3.28489 2.60782 2.4092 3.69597C1.5335 4.78412 0.940854 6.07216 0.684148 7.44512C0.427442 8.81808 0.514667 10.2332 0.938036 11.5643C1.3614 12.8953 2.10775 14.1008 3.11044 15.0732C4.67848 16.5955 6.77548 17.4509 8.96091 17.4596C11.1463 17.4683 13.2501 16.6297 14.8302 15.12C14.8649 15.0972 14.8953 15.0686 14.9202 15.0354C15.7244 14.2494 16.3633 13.3105 16.7994 12.2741C17.2356 11.2376 17.4602 10.1245 17.46 9ZM9.00004 1.26C10.4969 1.26113 11.9612 1.69624 13.2158 2.51264C14.4704 3.32904 15.4613 4.49169 16.0686 5.85978C16.6758 7.22786 16.8734 8.74268 16.6373 10.2208C16.4012 11.6988 15.7417 13.0767 14.7384 14.1876C14.3402 13.3984 13.7827 12.7004 13.1011 12.1374C12.4195 11.5745 11.6287 11.159 10.7784 10.917C11.4835 10.5226 12.0378 9.90556 12.3545 9.16241C12.6713 8.41927 12.7326 7.59205 12.5288 6.81034C12.325 6.02863 11.8677 5.33659 11.2285 4.84263C10.5893 4.34868 9.80427 4.08071 8.99644 4.08071C8.18861 4.08071 7.4036 4.34868 6.76438 4.84263C6.12516 5.33659 5.66784 6.02863 5.46408 6.81034C5.26031 7.59205 5.3216 8.41927 5.63835 9.16241C5.9551 9.90556 6.50941 10.5226 7.21444 10.917C6.36397 11.159 5.57293 11.5747 4.89132 12.138C4.20971 12.7012 3.65234 13.3998 3.25444 14.1894C1.96375 12.7701 1.25211 10.9184 1.26004 9C1.26004 6.94722 2.0755 4.97852 3.52703 3.52699C4.97857 2.07546 6.94727 1.26 9.00004 1.26ZM9.00004 10.665C8.42023 10.665 7.85346 10.493 7.37144 10.1708C6.88942 9.84853 6.51383 9.39054 6.29219 8.85476C6.07056 8.31899 6.01284 7.72951 6.12635 7.16092C6.23986 6.59233 6.51949 6.07019 6.92985 5.66058C7.34022 5.25098 7.86287 4.97231 8.43167 4.85985C9.00046 4.74739 9.58984 4.80619 10.1252 5.02882C10.6606 5.25144 11.1179 5.62788 11.4392 6.11049C11.7606 6.5931 11.9315 7.16019 11.9304 7.74C11.9285 8.51611 11.619 9.2598 11.0697 9.80809C10.5204 10.3564 9.77615 10.6645 9.00004 10.665ZM3.80164 14.7312C4.2557 13.7335 4.98728 12.8875 5.90905 12.2942C6.83083 11.701 7.90386 11.3855 9.00004 11.3855C10.0962 11.3855 11.1693 11.701 12.091 12.2942C13.0128 12.8875 13.7444 13.7335 14.1984 14.7312C12.776 16.0245 10.9225 16.7411 9.00004 16.7411C7.07755 16.7411 5.22409 16.0245 3.80164 14.7312Z" fill="black"/>
</symbol><symbol id="cart-pay1" viewBox="0 0 38 24">
<path opacity="0.07" d="M35 0H3C1.3 0 0 1.3 0 3V21C0 22.7 1.4 24 3 24H35C36.7 24 38 22.7 38 21V3C38 1.3 36.6 0 35 0Z" fill="black"/>
<path d="M35 1C36.1 1 37 1.9 37 3V21C37 22.1 36.1 23 35 23H3C1.9 23 1 22.1 1 21V3C1 1.9 1.9 1 3 1H35Z" fill="#006FCF"/>
<path d="M8.971 10.268L9.745 12.144H8.203L8.971 10.268ZM25.046 10.346H22.069V11.173H24.998V12.412H22.075V13.334H25.052V14.073L27.129 11.828L25.052 9.488L25.046 10.346ZM10.983 8.006H14.978L15.865 9.941L16.687 8H27.057L28.135 9.19L29.25 8H34.013L30.494 11.852L33.977 15.68H29.143L28.065 14.49L26.94 15.68H10.03L9.536 14.49H8.406L7.911 15.68H4L7.286 8H10.716L10.983 8.006ZM19.646 9.084H17.407L15.907 12.62L14.282 9.084H12.06V13.894L10 9.084H8.007L5.625 14.596H7.18L7.674 13.406H10.27L10.764 14.596H13.484V10.661L15.235 14.602H16.425L18.165 10.673V14.603H19.623L19.647 9.083L19.646 9.084ZM28.986 11.852L31.517 9.084H29.695L28.094 10.81L26.546 9.084H20.652V14.602H26.462L28.076 12.864L29.624 14.602H31.499L28.987 11.852H28.986Z" fill="white"/>
</symbol><symbol id="cart-pay2" viewBox="0 0 38 24">
<path opacity="0.07" d="M35 0H3C1.3 0 0 1.3 0 3V21C0 22.7 1.4 24 3 24H35C36.7 24 38 22.7 38 21V3C38 1.3 36.6 0 35 0Z" fill="black"/>
<path d="M35 1C36.1 1 37 1.9 37 3V21C37 22.1 36.1 23 35 23H3C1.9 23 1 22.1 1 21V3C1 1.9 1.9 1 3 1H35Z" fill="white"/>
<path d="M12 12V15.7C12 16 11.8 16 11.5 15.9C9.59998 15.1 8.49998 12.6 9.19998 10.5C9.59998 9.4 10.4 8.5 11.5 8.1C11.9 7.9 12 8 12 8.3V12ZM14 12V8.3C14 8 14 8 14.3 8.1C16.4 8.9 17.5 11.4 16.7 13.5C16.3 14.6 15.5 15.5 14.4 15.9C14 16.1 14 16 14 15.7V12ZM21.2 5H13C16.8 5 19.8 8.1 19.8 12C19.8 15.9 16.8 19 13 19H21.2C25 19 28 15.9 28 12C28 8.1 25 5 21.2 5Z" fill="#3086C8"/>
</symbol><symbol id="cart-pay3" viewBox="0 0 38 24">
<path opacity="0.07" d="M35 0H3C1.3 0 0 1.3 0 3V21C0 22.7 1.4 24 3 24H35C36.7 24 38 22.7 38 21V3C38 1.3 36.6 0 35 0Z" fill="black"/>
<path d="M35 1C36.1 1 37 1.9 37 3V21C37 22.1 36.1 23 35 23H3C1.9 23 1 22.1 1 21V3C1 1.9 1.9 1 3 1H35Z" fill="white"/>
<path d="M18.093 11.9762V15.1762H17.075V7.27623H19.766C20.0884 7.27077 20.4087 7.3291 20.7085 7.44786C21.0083 7.56661 21.2817 7.74346 21.513 7.96823C21.732 8.17262 21.9086 8.41818 22.0327 8.69087C22.1568 8.96355 22.2259 9.25802 22.2361 9.55743C22.2463 9.85685 22.1974 10.1553 22.0922 10.4358C21.987 10.7164 21.8275 10.9734 21.6229 11.1922L21.513 11.3082C21.043 11.7552 20.415 11.9982 19.766 11.9822L18.093 11.9762ZM18.093 8.24423V11.0322H19.791C20.168 11.0442 20.5319 10.8972 20.7959 10.6282C20.9848 10.4314 21.1116 10.1834 21.1606 9.91506C21.2096 9.64673 21.1786 9.36992 21.0715 9.11906C20.9644 8.8682 20.7859 8.65436 20.5582 8.50415C20.3305 8.35394 20.0637 8.27398 19.791 8.27423L18.093 8.24423ZM24.577 9.59223C25.2269 9.56223 25.863 9.78023 26.3549 10.2052C26.7999 10.6352 27.0369 11.2352 27.0049 11.8542V15.1882H26.0359V14.4222H25.9869C25.8132 14.7095 25.5674 14.9465 25.274 15.1098C24.9806 15.2731 24.6497 15.357 24.3139 15.3532C23.7658 15.371 23.2314 15.1805 22.818 14.8202C22.6221 14.6605 22.4651 14.4582 22.3589 14.2289C22.2527 13.9995 22.2001 13.749 22.205 13.4962C22.1934 13.2408 22.243 12.9864 22.3496 12.754C22.4563 12.5216 22.6168 12.318 22.818 12.1602C23.3114 11.8054 23.9086 11.6243 24.516 11.6452C25.033 11.6252 25.546 11.7382 26.006 11.9762V11.7682C26.0093 11.5963 25.9735 11.4258 25.9013 11.2697C25.829 11.1136 25.7222 10.976 25.589 10.8672C25.3213 10.6239 24.9706 10.4922 24.6089 10.4992C24.3463 10.4968 24.0873 10.5613 23.8565 10.6868C23.6257 10.8122 23.4307 10.9944 23.29 11.2162L22.395 10.6522C22.638 10.304 22.9661 10.0238 23.348 9.83828C23.7299 9.65274 24.153 9.56803 24.577 9.59223ZM23.29 13.5202C23.2875 13.6497 23.317 13.7779 23.3758 13.8933C23.4346 14.0088 23.5208 14.108 23.627 14.1822C23.85 14.3582 24.127 14.4512 24.412 14.4452C24.841 14.4442 25.252 14.2752 25.558 13.9732C25.863 13.6872 26.0359 13.2882 26.0359 12.8702C25.651 12.5965 25.1832 12.4644 24.712 12.4962C24.346 12.4818 23.9851 12.5848 23.6819 12.7902C23.5619 12.8706 23.4634 12.9791 23.395 13.1064C23.3267 13.2337 23.2906 13.3758 23.29 13.5202ZM32.576 9.77023L29.186 17.5602H28.138L29.419 14.8322L27.195 9.77023H28.298L29.91 13.6552L31.479 9.77023H32.576Z" fill="#5F6368"/>
<path d="M13.986 11.2838C13.986 10.9758 13.962 10.6678 13.913 10.3638H9.62305V12.1108H12.074C12.0241 12.3884 11.9187 12.6531 11.7641 12.889C11.6094 13.125 11.4087 13.3273 11.174 13.4838V14.6178H12.638C13.0832 14.1871 13.4331 13.6678 13.6653 13.0936C13.8975 12.5194 14.0067 11.9028 13.986 11.2838Z" fill="#4285F4"/>
<path d="M9.62903 15.7209C10.7353 15.7513 11.8117 15.359 12.639 14.6239L11.173 13.4839C10.8208 13.7098 10.4217 13.8523 10.006 13.9008C9.59043 13.9492 9.16924 13.9022 8.77451 13.7633C8.37978 13.6245 8.02191 13.3975 7.72812 13.0995C7.43432 12.8016 7.21233 12.4406 7.07903 12.0439H5.57703V13.2139C5.95288 13.967 6.53107 14.6004 7.24678 15.0432C7.96249 15.486 8.78741 15.7207 9.62903 15.7209Z" fill="#34A853"/>
<path d="M7.07905 12.05C6.88885 11.4873 6.88885 10.8777 7.07905 10.315V9.14502H5.57705C5.25684 9.77647 5.08997 10.4745 5.08997 11.1825C5.08997 11.8905 5.25684 12.5886 5.57705 13.22L7.07905 12.05Z" fill="#FBBC04"/>
<path d="M9.62903 8.44019C10.276 8.42837 10.9015 8.6728 11.369 9.12019L12.669 7.82719C11.8401 7.0492 10.7407 6.62485 9.60403 6.64419C8.76739 6.64838 7.94827 6.88419 7.23746 7.32547C6.52665 7.76674 5.95194 8.39625 5.57703 9.14419L7.07903 10.3152C7.25465 9.77527 7.59512 9.304 8.05253 8.96766C8.50995 8.63132 9.0613 8.44685 9.62903 8.44019Z" fill="#EA4335"/>
</symbol><symbol id="cart-pay4" viewBox="0 0 38 24">
<path fill-rule="evenodd" clip-rule="evenodd" d="M35 0H3C1.3 0 0 1.3 0 3V21C0 22.7 1.4 24 3 24H35C36.7 24 38 22.7 38 21V3C38 1.3 36.6 0 35 0Z" fill="#FFB3C7"/>
<path fill-rule="evenodd" clip-rule="evenodd" d="M35 1C36.1 1 37 1.9 37 3V21C37 22.1 36.1 23 35 23H3C1.9 23 1 22.1 1 21V3C1 1.9 1.9 1 3 1H35Z" fill="#FFB3C7"/>
<path d="M34.117 13.184C33.63 13.184 33.235 13.584 33.235 14.076C33.235 14.569 33.63 14.969 34.117 14.969C34.605 14.969 35 14.569 35 14.076C35.0011 13.8407 34.9087 13.6145 34.7431 13.4473C34.5775 13.28 34.3523 13.1853 34.117 13.184ZM31.214 12.494C31.214 11.818 30.644 11.271 29.94 11.271C29.236 11.271 28.666 11.818 28.666 12.493C28.666 13.168 29.236 13.716 29.94 13.716C30.644 13.716 31.214 13.168 31.214 12.493V12.494ZM31.219 10.118H32.625V14.868H31.219V14.565C30.8095 14.8486 30.3231 15.0003 29.825 15C28.456 15 27.347 13.878 27.347 12.493C27.347 11.109 28.457 9.987 29.825 9.987C30.342 9.987 30.821 10.147 31.219 10.422V10.118ZM19.966 10.737V10.118H18.526V14.868H19.969V12.651C19.969 11.902 20.771 11.501 21.328 11.501H21.344V10.119C20.774 10.119 20.248 10.366 19.966 10.737ZM16.38 12.493C16.38 11.818 15.81 11.271 15.106 11.271C14.403 11.271 13.832 11.818 13.832 12.493C13.832 13.168 14.402 13.716 15.106 13.716C15.81 13.716 16.38 13.168 16.38 12.493ZM16.385 10.118H17.791V14.868H16.385V14.565C15.9752 14.8488 15.4885 15.0005 14.99 15C13.622 15 12.512 13.878 12.512 12.493C12.512 11.109 13.622 9.987 14.99 9.987C15.507 9.987 15.987 10.147 16.384 10.422V10.118H16.385ZM24.848 9.99C24.287 9.99 23.755 10.167 23.4 10.653V10.118H22V14.868H23.417V12.372C23.417 11.65 23.896 11.296 24.472 11.296C25.09 11.296 25.445 11.67 25.445 12.362V14.869H26.85V11.848C26.85 10.742 25.98 9.99 24.848 9.99ZM10.465 14.87H11.937V8H10.465V14.868V14.87ZM4 14.87H5.558V8H4V14.87ZM9.45 8C9.45395 8.72288 9.31529 9.43944 9.04194 10.1087C8.76859 10.7779 8.36592 11.3866 7.857 11.9L10.011 14.87H8.086L5.745 11.642L6.349 11.184C6.8417 10.8128 7.24085 10.3316 7.51465 9.7788C7.78845 9.226 7.92931 8.61688 7.926 8H9.45Z" fill="#0A0B09"/>
</symbol><symbol id="cart-pay5" viewBox="0 0 38 24">
<path opacity="0.07" d="M35 0H3C1.3 0 0 1.3 0 3V21C0 22.7 1.4 24 3 24H35C36.7 24 38 22.7 38 21V3C38 1.3 36.6 0 35 0Z" fill="black"/>
<path d="M35 1C36.1 1 37 1.9 37 3V21C37 22.1 36.1 23 35 23H3C1.9 23 1 22.1 1 21V3C1 1.9 1.9 1 3 1H35Z" fill="white"/>
<path d="M15 19C18.866 19 22 15.866 22 12C22 8.13401 18.866 5 15 5C11.134 5 8 8.13401 8 12C8 15.866 11.134 19 15 19Z" fill="#EB001B"/>
<path d="M23 19C26.866 19 30 15.866 30 12C30 8.13401 26.866 5 23 5C19.134 5 16 8.13401 16 12C16 15.866 19.134 19 23 19Z" fill="#F79E1B"/>
<path d="M22 11.9998C22 9.5998 20.8 7.4998 19 6.2998C17.2 7.5998 16 9.6998 16 11.9998C16 14.2998 17.2 16.4998 19 17.6998C20.8 16.4998 22 14.3998 22 11.9998Z" fill="#FF5F00"/>
</symbol><symbol id="cart-pay6" viewBox="0 0 38 24">
<path opacity="0.07" d="M35 0H3C1.3 0 0 1.3 0 3V21C0 22.7 1.4 24 3 24H35C36.7 24 38 22.7 38 21V3C38 1.3 36.6 0 35 0Z" fill="black"/>
<path d="M35 1C36.1 1 37 1.9 37 3V21C37 22.1 36.1 23 35 23H3C1.9 23 1 22.1 1 21V3C1 1.9 1.9 1 3 1H35Z" fill="#5A31F4"/>
<path d="M21.382 9.71305C21.382 11.3811 20.205 12.5711 18.561 12.5711H17.012C16.9864 12.5714 16.9615 12.5792 16.9402 12.5934C16.9189 12.6076 16.9022 12.6276 16.892 12.6511C16.8854 12.6666 16.882 12.6832 16.882 12.7001V14.8921C16.882 14.9091 16.8786 14.9259 16.8721 14.9417C16.8655 14.9574 16.8559 14.9716 16.8438 14.9836C16.8318 14.9956 16.8174 15.0051 16.8017 15.0115C16.7859 15.0179 16.769 15.0212 16.752 15.0211H15.668C15.6335 15.0211 15.6004 15.0074 15.5761 14.983C15.5517 14.9586 15.538 14.9255 15.538 14.8911V6.98605C15.5376 6.9603 15.545 6.93503 15.5593 6.91359C15.5736 6.89216 15.5941 6.87558 15.618 6.86605C15.6338 6.85943 15.6508 6.85603 15.668 6.85605H18.568C20.205 6.85605 21.382 8.04605 21.382 9.71405V9.71305ZM20.03 9.71305C20.03 8.75505 19.372 8.05505 18.48 8.05505H17.012C16.9949 8.05505 16.978 8.05841 16.9622 8.06495C16.9465 8.07148 16.9321 8.08106 16.9201 8.09313C16.908 8.1052 16.8984 8.11953 16.8919 8.1353C16.8853 8.15108 16.882 8.16798 16.882 8.18505V11.2351C16.8818 11.2522 16.8851 11.2691 16.8916 11.2849C16.8981 11.3007 16.9078 11.3151 16.92 11.3271C16.932 11.3392 16.9464 11.3488 16.9622 11.3553C16.978 11.3618 16.9949 11.3651 17.012 11.3651H18.48C19.372 11.3701 20.03 10.6701 20.03 9.71305ZM21.704 13.5041C21.6926 13.2479 21.7458 12.9929 21.8589 12.7627C21.972 12.5326 22.1412 12.3346 22.351 12.1871C22.774 11.8711 23.435 11.7071 24.406 11.6731L25.439 11.6371V11.3341C25.439 10.7271 25.029 10.4711 24.371 10.4711C23.713 10.4711 23.296 10.7021 23.201 11.0811C23.1929 11.1077 23.1763 11.1309 23.1537 11.1472C23.1311 11.1634 23.1038 11.1718 23.076 11.1711H22.054C22.0259 11.1714 21.9984 11.1626 21.9756 11.1461C21.9529 11.1295 21.9362 11.106 21.928 11.0791C21.9226 11.0612 21.9212 11.0425 21.924 11.0241C22.076 10.1261 22.828 9.44405 24.418 9.44405C26.11 9.44405 26.721 10.2271 26.721 11.7201V14.8921C26.7209 14.9092 26.7173 14.9262 26.7106 14.942C26.7039 14.9577 26.6941 14.972 26.6818 14.984C26.6696 14.996 26.6551 15.0055 26.6391 15.0118C26.6232 15.0182 26.6061 15.0213 26.589 15.0211H25.559C25.5245 15.0211 25.4914 15.0074 25.4671 14.983C25.4427 14.9586 25.429 14.9255 25.429 14.8911V14.6551C25.4293 14.6355 25.4236 14.6163 25.4127 14.6C25.4018 14.5837 25.3862 14.5712 25.368 14.5641C25.3499 14.5569 25.3302 14.5552 25.3112 14.5592C25.2922 14.5631 25.2748 14.5724 25.261 14.5861C24.951 14.9201 24.453 15.1611 23.654 15.1611C22.479 15.1611 21.704 14.5541 21.704 13.5041ZM25.439 12.8171V12.5711L24.1 12.6411C23.395 12.6771 22.985 12.9671 22.985 13.4571C22.985 13.9011 23.361 14.1471 24.019 14.1471C24.912 14.1471 25.439 13.6671 25.439 12.8171ZM27.755 17.4171V16.4981C27.7552 16.4788 27.7598 16.4598 27.7682 16.4425C27.7767 16.4252 27.7889 16.4101 27.804 16.3981C27.8189 16.386 27.8363 16.3773 27.855 16.3726C27.8737 16.3679 27.8931 16.3674 27.912 16.3711C28.07 16.4001 28.23 16.4151 28.391 16.4151C28.6667 16.4302 28.9396 16.3519 29.1654 16.193C29.3913 16.0341 29.5571 15.8037 29.636 15.5391L29.703 15.3281C29.713 15.2996 29.713 15.2685 29.703 15.2401L27.558 9.76905C27.5455 9.73903 27.5448 9.70543 27.5559 9.67489C27.567 9.64435 27.5892 9.61908 27.618 9.60405C27.6371 9.59398 27.6584 9.58883 27.68 9.58905H28.72C28.7467 9.58912 28.7727 9.59728 28.7947 9.61246C28.8166 9.62763 28.8335 9.64911 28.843 9.67405L30.299 13.5331C30.308 13.559 30.3249 13.5814 30.3473 13.5972C30.3697 13.613 30.3966 13.6213 30.424 13.6211C30.4513 13.621 30.478 13.6126 30.5004 13.5968C30.5228 13.5811 30.5397 13.5588 30.549 13.5331L31.814 9.68505C31.8226 9.65852 31.8394 9.63545 31.8621 9.61925C31.8848 9.60304 31.9121 9.59456 31.94 9.59505H33.016C33.0483 9.59524 33.0794 9.60708 33.1036 9.62839C33.1279 9.64971 33.1436 9.67906 33.148 9.71105C33.1504 9.73239 33.1477 9.754 33.14 9.77405L30.845 15.8501C30.317 17.2631 29.412 17.6231 28.415 17.6231C28.2258 17.6283 28.0368 17.606 27.854 17.5571C27.8233 17.5495 27.7964 17.5313 27.778 17.5056C27.7597 17.4799 27.7512 17.4485 27.754 17.4171H27.755ZM8.56998 6.40005C7.20548 6.38985 5.8884 6.90016 4.88698 7.82705C4.84437 7.86581 4.81777 7.91908 4.81241 7.97643C4.80704 8.03378 4.8233 8.09107 4.85798 8.13705L5.47598 8.97605C5.49601 9.00434 5.52202 9.02787 5.55216 9.04498C5.58231 9.06208 5.61585 9.07233 5.65041 9.075C5.68497 9.07768 5.71969 9.07271 5.75211 9.06044C5.78452 9.04818 5.81384 9.02893 5.83798 9.00405C6.1979 8.64665 6.62535 8.36444 7.09542 8.17387C7.56549 7.9833 8.06879 7.88818 8.57598 7.89405C10.696 7.89405 11.803 9.47805 11.803 11.0441C11.803 12.7441 10.64 13.9421 8.96798 13.9651C7.67598 13.9651 6.70198 13.1151 6.70198 11.9911C6.70309 11.7068 6.76768 11.4264 6.89104 11.1704C7.0144 10.9143 7.19341 10.6891 7.41498 10.5111C7.46216 10.4724 7.49211 10.4166 7.49829 10.3559C7.50447 10.2952 7.48639 10.2345 7.44798 10.1871L6.79798 9.37205C6.77836 9.34699 6.75387 9.32617 6.72598 9.31082C6.6981 9.29547 6.6674 9.28592 6.63573 9.28275C6.60406 9.27957 6.57208 9.28283 6.54171 9.29234C6.51133 9.30184 6.48319 9.31739 6.45898 9.33805C6.06088 9.65739 5.73906 10.0615 5.51698 10.5211C5.2957 10.9795 5.18051 11.482 5.17998 11.9911C5.17998 13.9261 6.83498 15.4431 8.95498 15.4551H8.98498C11.502 15.4231 13.322 13.5711 13.322 11.0401C13.322 8.79305 11.655 6.40005 8.56998 6.40005Z" fill="white"/>
</symbol><symbol id="cart-pay7" viewBox="0 0 38 24">
<path d="M35 0H3C1.34315 0 0 1.34315 0 3V21C0 22.6569 1.34315 24 3 24H35C36.6569 24 38 22.6569 38 21V3C38 1.34315 36.6569 0 35 0Z" fill="black" fill-opacity="0.07"/>
<path fill-rule="evenodd" clip-rule="evenodd" d="M35 1C36.1 1 37 1.9 37 3V21C37 22.1 36.1 23 35 23H3C1.9 23 1 22.1 1 21V3C1 1.9 1.9 1 3 1H35Z" fill="#3D95CE"/>
<path d="M24.675 8.3599C24.675 11.4239 22.118 15.4049 20.042 18.1999H15.302L13.4 6.5699L17.551 6.1679L18.556 14.4429C19.496 12.8769 20.655 10.4179 20.655 8.7409C20.655 7.8229 20.501 7.1979 20.261 6.6829L24.041 5.8999C24.478 6.6379 24.675 7.3989 24.675 8.3599Z" fill="white"/>
</symbol><symbol id="cart-pay8" viewBox="0 0 38 24">
<path opacity="0.07" d="M35 0H3C1.3 0 0 1.3 0 3V21C0 22.7 1.4 24 3 24H35C36.7 24 38 22.7 38 21V3C38 1.3 36.6 0 35 0Z" fill="black"/>
<path d="M35 1C36.1 1 37 1.9 37 3V21C37 22.1 36.1 23 35 23H3C1.9 23 1 22.1 1 21V3C1 1.9 1.9 1 3 1H35Z" fill="white"/>
<path d="M28.3 10.1H28C27.6 11.1 27.3 11.6 27 13.1H28.9C28.6 11.6 28.6 10.9 28.3 10.1ZM31.2 16H29.5C29.4 16 29.4 16 29.3 15.9L29.1 15L29 14.8H26.6C26.5 14.8 26.4 14.8 26.4 15L26.1 15.9C26.1 16 26 16 26 16H23.9L24.1 15.5L27 8.7C27 8.2 27.3 8 27.8 8H29.3C29.4 8 29.5 8 29.5 8.2L30.9 14.7C31 15.1 31.1 15.4 31.1 15.8C31.2 15.9 31.2 15.9 31.2 16ZM17.8 15.7L18.2 13.9C18.3 13.9 18.4 14 18.4 14C19.1 14.3 19.8 14.5 20.5 14.4C20.7 14.4 21 14.3 21.2 14.2C21.7 14 21.7 13.5 21.3 13.1C21.1 12.9 20.8 12.8 20.5 12.6C20.1 12.4 19.7 12.2 19.4 11.9C18.2 10.9 18.6 9.5 19.3 8.8C19.9 8.4 20.2 8 21 8C22.2 8 23.5 8 24.1 8.2H24.2C24.1 8.8 24 9.3 23.8 9.9C23.3 9.7 22.8 9.5 22.3 9.5C22 9.5 21.7 9.5 21.4 9.6C21.2 9.6 21.1 9.7 21 9.8C20.8 10 20.8 10.3 21 10.5L21.5 10.9C21.9 11.1 22.3 11.3 22.6 11.5C23.1 11.8 23.6 12.3 23.7 12.9C23.9 13.8 23.6 14.6 22.8 15.2C22.3 15.6 22.1 15.8 21.4 15.8C20 15.8 18.9 15.9 18 15.6C17.9 15.8 17.9 15.8 17.8 15.7ZM14.3 16C14.4 15.3 14.4 15.3 14.5 15C15 12.8 15.5 10.5 15.9 8.3C16 8.1 16 8 16.2 8H18C17.8 9.2 17.6 10.1 17.3 11.2C17 12.7 16.7 14.2 16.3 15.7C16.3 15.9 16.2 15.9 16 15.9L14.3 16ZM5 8.2C5 8.1 5.2 8 5.3 8H8.7C9.2 8 9.6 8.3 9.7 8.8L10.6 13.2C10.6 13.3 10.6 13.3 10.7 13.4C10.7 13.3 10.8 13.3 10.8 13.3L12.9 8.2C12.8 8.1 12.9 8 13 8H15.1C15.1 8.1 15.1 8.1 15 8.2L11.9 15.5C11.8 15.7 11.8 15.8 11.7 15.9C11.6 16 11.4 15.9 11.2 15.9H9.7C9.6 15.9 9.5 15.9 9.5 15.7L7.9 9.5C7.7 9.3 7.4 9 7 8.9C6.4 8.6 5.3 8.4 5.1 8.4L5 8.2Z" fill="#142688"/>
</symbol><symbol id="cart" viewBox="0 0 18 16">
<path d="M8.55902 12.3092C8.27422 12.3092 7.99581 12.3937 7.759 12.5519C7.52219 12.7101 7.33762 12.935 7.22863 13.1981C7.11964 13.4613 7.09113 13.7508 7.14669 14.0301C7.20225 14.3095 7.3394 14.5661 7.54079 14.7674C7.74217 14.9688 7.99876 15.106 8.27809 15.1615C8.55742 15.2171 8.84696 15.1886 9.11009 15.0796C9.37321 14.9706 9.59811 14.786 9.75634 14.5492C9.91457 14.3124 9.99902 14.034 9.99902 13.7492C9.99902 13.3673 9.84731 13.001 9.57726 12.731C9.3072 12.4609 8.94093 12.3092 8.55902 12.3092ZM8.55902 14.4692C8.41662 14.4692 8.27741 14.427 8.15901 14.3479C8.04061 14.2687 7.94832 14.1563 7.89383 14.0247C7.83933 13.8932 7.82507 13.7484 7.85285 13.6087C7.88064 13.4691 7.94921 13.3408 8.0499 13.2401C8.1506 13.1394 8.27889 13.0708 8.41856 13.043C8.55822 13.0153 8.70299 13.0295 8.83455 13.084C8.96612 13.1385 9.07857 13.2308 9.15768 13.3492C9.23679 13.4676 9.27902 13.6068 9.27902 13.7492C9.2776 13.9392 9.20111 14.121 9.06624 14.2548C8.93137 14.3887 8.74905 14.4638 8.55902 14.4638V14.4692Z" fill="black"/>
<path d="M13.8277 12.3092C13.5429 12.3092 13.2645 12.3937 13.0277 12.5519C12.7909 12.7101 12.6063 12.935 12.4973 13.1981C12.3883 13.4613 12.3598 13.7508 12.4154 14.0301C12.4709 14.3095 12.6081 14.5661 12.8095 14.7674C13.0108 14.9688 13.2674 15.106 13.5468 15.1615C13.8261 15.2171 14.1156 15.1886 14.3788 15.0796C14.6419 14.9706 14.8668 14.786 15.025 14.5492C15.1832 14.3124 15.2677 14.034 15.2677 13.7492C15.2677 13.3673 15.116 13.001 14.8459 12.731C14.5759 12.4609 14.2096 12.3092 13.8277 12.3092ZM13.8277 14.4692C13.6853 14.4692 13.5461 14.427 13.4277 14.3479C13.3093 14.2687 13.217 14.1563 13.1625 14.0247C13.108 13.8932 13.0937 13.7484 13.1215 13.6087C13.1493 13.4691 13.2179 13.3408 13.3186 13.2401C13.4193 13.1394 13.5476 13.0708 13.6872 13.043C13.8269 13.0153 13.9717 13.0295 14.1032 13.084C14.2348 13.1385 14.3472 13.2308 14.4264 13.3492C14.5055 13.4676 14.5477 13.6068 14.5477 13.7492C14.5463 13.9392 14.4698 14.121 14.3349 14.2548C14.2 14.3887 14.0177 14.4638 13.8277 14.4638V14.4692Z" fill="black"/>
<path d="M15.975 10.115L17.4312 3.6134C17.4693 3.44341 17.4686 3.26704 17.4293 3.09733C17.39 2.92763 17.3131 2.76891 17.2042 2.63292C17.0954 2.49693 16.9574 2.38714 16.8004 2.31165C16.6434 2.23617 16.4714 2.19692 16.2972 2.1968H4.94464L4.72144 1.1042C4.70461 1.02166 4.65937 0.947638 4.59359 0.895015C4.52781 0.842392 4.44566 0.814503 4.36144 0.816201H0.900039C0.804561 0.816201 0.712994 0.854129 0.645481 0.921642C0.577968 0.989156 0.540039 1.08072 0.540039 1.1762C0.540039 1.27168 0.577968 1.36325 0.645481 1.43076C0.712994 1.49827 0.804561 1.5362 0.900039 1.5362H4.07524L4.29844 2.6288L5.82844 10.1078L6.17224 11.78C6.18907 11.8625 6.23431 11.9366 6.30009 11.9892C6.36587 12.0418 6.44802 12.0697 6.53224 12.068H16.5816C16.6771 12.068 16.7687 12.0301 16.8362 11.9626C16.9037 11.895 16.9416 11.8035 16.9416 11.708C16.9416 11.6125 16.9037 11.521 16.8362 11.4534C16.7687 11.3859 16.6771 11.348 16.5816 11.348H6.81844L6.62224 10.3922H15.6222C15.7037 10.3928 15.783 10.3656 15.8471 10.3153C15.9112 10.2649 15.9563 10.1943 15.975 10.115ZM6.48004 9.6758L5.09224 2.9168H16.2972C16.3638 2.91646 16.4295 2.93117 16.4895 2.95983C16.5495 2.98849 16.6023 3.03036 16.6439 3.0823C16.6854 3.13425 16.7147 3.19492 16.7295 3.25977C16.7442 3.32462 16.7442 3.39198 16.7292 3.4568L15.3342 9.6758H6.48004Z" fill="black"/>
</symbol><symbol id="splash" viewBox="0 0 30 48">
<path d="M5.99999 47.5C5.84431 47.5008 5.68934 47.4789 5.53999 47.435C5.33169 47.3737 5.13759 47.2718 4.96888 47.1351C4.80016 46.9984 4.66018 46.8297 4.55699 46.6387C4.4538 46.4476 4.38945 46.2381 4.36765 46.022C4.34586 45.806 4.36704 45.5878 4.42999 45.38L8.96499 29.5H2.15999C1.95753 29.5072 1.75566 29.4742 1.566 29.4029C1.37635 29.3317 1.20268 29.2237 1.05499 29.085C0.730601 28.7998 0.532226 28.3979 0.503184 27.967C0.474143 27.536 0.616795 27.1111 0.899988 26.785L22.09 1.09499C22.2894 0.854206 22.5535 0.675445 22.8512 0.579772C23.1488 0.484099 23.4676 0.4755 23.77 0.55499C23.978 0.604518 24.1738 0.695609 24.3456 0.822781C24.5175 0.949953 24.6618 1.11058 24.77 1.29499C24.9933 1.66564 25.0616 2.10936 24.96 2.52999L20.92 20.435H27.86C28.1737 20.4368 28.4804 20.5283 28.7439 20.6986C29.0073 20.869 29.2165 21.1112 29.3469 21.3966C29.4772 21.6819 29.5232 21.9987 29.4795 22.3093C29.4357 22.62 29.3041 22.9117 29.1 23.15V23.175L7.22999 46.95C7.07644 47.1246 6.88712 47.264 6.67488 47.3589C6.46265 47.4538 6.23247 47.5019 5.99999 47.5ZM10.295 27.5C10.4497 27.5002 10.6022 27.5363 10.7406 27.6055C10.8789 27.6746 10.9994 27.7749 11.0924 27.8985C11.1855 28.0221 11.2486 28.1655 11.2768 28.3176C11.305 28.4697 11.2975 28.6263 11.255 28.775L6.76499 44.5L27.045 22.435H19.67C19.5179 22.4387 19.367 22.4077 19.2287 22.3443C19.0905 22.281 18.9685 22.1869 18.872 22.0692C18.7756 21.9516 18.7073 21.8135 18.6723 21.6655C18.6373 21.5174 18.6365 21.3634 18.67 21.215L22.67 3.51499L2.89999 27.5H10.295Z" fill="black"/>
</symbol></svg>